Coordinates
version=1
nRows=6
nColumns=36
inDegrees=yes

Units are S.I. units (second, meters, Newtons, ...)
If the header above contains a line with 'inDegrees', this indicates whether rotational values are in degrees (yes) or radians (no).

endheader
time	pelvis_tilt	pelvis_list	pelvis_rotation	pelvis_tx	pelvis_ty	pelvis_tz	hip_flexion_r	hip_adduction_r	hip_rotation_r	knee_angle_r	knee_angle_r_beta	ankle_angle_r	subtalar_angle_r	mtp_angle_r	hip_flexion_l	hip_adduction_l	hip_rotation_l	knee_angle_l	knee_angle_l_beta	ankle_angle_l	subtalar_angle_l	mtp_angle_l	lumbar_extension	lumbar_bending	lumbar_rotation	arm_flex_r	arm_add_r	arm_rot_r	elbow_flex_r	pro_sup_r	arm_flex_l	arm_add_l	arm_rot_l	elbow_flex_l	pro_sup_l
     14.91666670	      4.59656862	     -6.07564888	     -1.58200357	      0.61369345	      1.03176202	      0.73032326	     18.94602909	      6.96262453	      0.79066924	     21.58217734	      0.37668005	      1.58321934	     -6.02313864	     -7.49999987	    -11.72969634	     -8.98437507	     -4.37535242	     31.80004837	      0.55501555	     14.81059423	     -0.84183648	     -7.49999987	    -20.45673120	      7.15189878	      4.09737863	      1.40640532	    -17.36720140	      2.44872420	     24.36110633	     86.81762338	     14.15217159	    -11.48585151	     20.10909267	     26.77712717	     89.78353557
     14.93333330	      4.59834387	     -6.78277934	     -1.58506961	      0.61140529	      1.03201174	      0.73271701	     18.01893218	      7.92316085	      0.81374033	     22.23923650	      0.38814790	      3.55012127	     -6.02941382	     -7.49999987	     -9.09237424	    -10.72707788	     -4.25556774	     38.24971614	      0.66758348	     10.14120417	     -2.21427638	     -7.49999987	    -20.43619678	      8.00711053	      4.61434693	      1.62196317	    -17.78111403	      3.48786611	     24.58777871	     85.69862389	     13.70774616	    -11.22324704	     20.49746686	     25.84618961	     88.97827819
     14.95000000	      4.65205799	     -7.29095942	     -1.62151113	      0.61057619	      1.03286904	      0.73553247	     16.79963670	      8.69604374	      0.97400871	     22.28408018	      0.38893057	      5.10635464	     -6.38778675	     -7.49999987	     -6.12206869	    -12.03610012	     -3.74522302	     44.56714076	      0.77784334	      5.59239073	     -3.72277123	     -7.49999987	    -20.61503375	      8.57551632	      5.51847975	      1.38058244	    -18.48130811	      4.89762397	     25.98299307	     84.76037627	     13.58725838	    -11.06652853	     21.92951836	     25.03620022	     89.01047347
     14.96666670	      5.03080199	     -7.55858727	     -1.83556813	      0.61167382	      1.03443625	      0.73828660	     14.97009183	      9.22819799	      1.34819419	     21.77610831	      0.38006479	      6.47189195	     -6.39468147	     -7.49999987	     -3.61287044	    -12.77414081	     -3.29583203	     49.89439329	      0.87082144	      2.32065778	     -4.39636295	     -7.49999987	    -21.26984627	      8.80037739	      6.22588797	      1.91459634	    -18.72233941	      4.89521217	     26.43659742	     84.71975767	     13.07878675	    -10.98254872	     22.06794248	     24.86413112	     89.03593930
     14.98333330	      4.77053786	     -7.69251978	     -1.69400965	      0.61347327	      1.03518509	      0.73907798	     13.57598359	      9.44848925	      1.20576450	     20.77074815	      0.36251794	      7.37671892	     -6.00687355	     -7.49999987	     -0.36533804	    -12.87166303	     -1.87607607	     54.32566107	      0.94816165	      0.20135693	     -5.90678702	     -7.49999987	    -20.98285128	      9.12209124	      6.97685802	      1.24464652	    -19.40826620	      5.40580076	     28.65807175	     83.43841576	     12.91984660	    -10.60576102	     23.34220139	     23.68992219	     88.70235664
     15.00000000	      4.89365543	     -7.62453002	     -1.67242306	      0.61404809	      1.03649054	      0.73932885	     11.69642796	      9.53081828	      1.51037610	     19.71973906	      0.34417437	      8.14438587	     -5.65312546	     -7.49999987	      2.06626122	    -12.49500009	     -0.76334534	     57.48502807	      1.00330301	     -0.10241640	     -6.26027490	     -7.49999987	    -21.17013399	      9.14067551	      7.51218194	      1.11098444	    -19.69812475	      5.16227256	     30.07133502	     82.26801870	     12.55810181	    -10.41987684	     24.11842510	     23.07819525	     88.34629704
